<?xml version="1.0" encoding="UTF-8" standalone="no"?><!DOCTYPE svg PUBLIC "-//W3C//DTD SVG 1.1//EN" "http://www.w3.org/Graphics/SVG/1.1/DTD/svg11.dtd"><svg width="100%" height="100%" viewBox="0 0 39 9" version="1.1" xmlns="http://www.w3.org/2000/svg" xmlns:xlink="http://www.w3.org/1999/xlink" xml:space="preserve" xmlns:serif="http://www.serif.com/" style="fill-rule:evenodd;clip-rule:evenodd;stroke-linecap:round;stroke-linejoin:round;stroke-miterlimit:1.5;"><path d="M4.67,8.02l-3.519,0c-0.366,0 -0.664,-0.298 -0.664,-0.664l0,-6.297c0,-0.367 0.298,-0.664 0.664,-0.664l4.425,0c0.366,0 0.664,0.297 0.664,0.664l0,3.772" style="fill:none;stroke:#2d3748;stroke-width:0.6px;"/><path d="M1.866,3.816l2.995,0" style="fill:none;stroke:#cbd5e0;stroke-width:0.4px;"/><path d="M1.866,4.912l2.995,0" style="fill:none;stroke:#cbd5e0;stroke-width:0.4px;"/><path d="M1.866,5.953l1.844,0" style="fill:none;stroke:#cbd5e0;stroke-width:0.4px;"/><path d="M2.464,1.752l1.799,0" style="fill:none;stroke:#cbd5e0;stroke-width:0.5px;"/><circle cx="6.48" cy="6.886" r="1.422" style="fill:#4299e1;"/><path d="M5.816,7.062l0.543,0.411l1.075,-1.174" style="fill:none;stroke:#ebf8ff;stroke-width:0.4px;"/><g><path d="M11.57,2.565l-1.315,0l0,3.51l1.315,0c1.12,0 1.84,-0.715 1.84,-1.755c0,-1.045 -0.72,-1.755 -1.84,-1.755Zm-0.46,2.77l0,-2.04l0.405,0c0.645,0 1.025,0.38 1.025,1.025c0,0.645 -0.38,1.015 -1.025,1.015l-0.405,0Z" style="fill:#2d3748;fill-rule:nonzero;"/><path d="M13.89,6.075l0.855,0l0,-1.42l1.07,0l0,-0.665l-1.07,0l0,-0.74l1.43,0l0,-0.685l-2.285,0l0,3.51Z" style="fill:#2d3748;fill-rule:nonzero;"/><path d="M18.14,5.215l-0.87,-2.65l-0.91,0l1.245,3.51l1.07,0l1.245,-3.51l-0.905,0l-0.875,2.65Z" style="fill:#2d3748;fill-rule:nonzero;"/><path d="M23.19,3.705c0,0.275 -0.15,0.44 -0.47,0.44l-0.53,0l0,-0.87l0.53,0c0.32,0 0.47,0.17 0.47,0.43Zm-1.855,-1.14l0,3.51l0.855,0l0,-1.325l0.205,0l0.73,1.325l0.965,0l-0.81,-1.39c0.54,-0.16 0.78,-0.575 0.78,-1.015c0,-0.61 -0.43,-1.105 -1.29,-1.105l-1.435,0Z" style="fill:#2d3748;fill-rule:nonzero;"/><path d="M25.825,3.93c0.285,0 0.525,0.175 0.525,0.48l-1.07,0c0.05,-0.31 0.265,-0.48 0.545,-0.48Zm1.335,1.22l-0.91,0c-0.07,0.15 -0.205,0.27 -0.445,0.27c-0.275,0 -0.5,-0.17 -0.53,-0.535l1.935,0c0.01,-0.085 0.015,-0.17 0.015,-0.25c0,-0.85 -0.575,-1.39 -1.39,-1.39c-0.83,0 -1.41,0.55 -1.41,1.435c0,0.885 0.59,1.435 1.41,1.435c0.695,0 1.19,-0.42 1.325,-0.965Z" style="fill:#2d3748;fill-rule:nonzero;"/><path d="M27.505,4.675c0,0.88 0.545,1.44 1.23,1.44c0.41,0 0.705,-0.195 0.86,-0.44l0,0.395c0,0.47 -0.255,0.64 -0.58,0.64c-0.295,0 -0.505,-0.135 -0.56,-0.345l-0.845,0c0.075,0.665 0.615,1.085 1.445,1.085c0.965,0 1.395,-0.635 1.395,-1.38l0,-2.785l-0.855,0l0,0.395c-0.15,-0.25 -0.45,-0.435 -0.86,-0.435c-0.685,0 -1.23,0.55 -1.23,1.43Zm2.09,0.005c0,0.445 -0.285,0.69 -0.61,0.69c-0.32,0 -0.61,-0.25 -0.61,-0.695c0,-0.445 0.29,-0.685 0.61,-0.685c0.325,0 0.61,0.245 0.61,0.69Z" style="fill:#2d3748;fill-rule:nonzero;"/><path d="M32.3,3.93c0.285,0 0.525,0.175 0.525,0.48l-1.07,0c0.05,-0.31 0.265,-0.48 0.545,-0.48Zm1.335,1.22l-0.91,0c-0.07,0.15 -0.205,0.27 -0.445,0.27c-0.275,0 -0.5,-0.17 -0.53,-0.535l1.935,0c0.01,-0.085 0.015,-0.17 0.015,-0.25c0,-0.85 -0.575,-1.39 -1.39,-1.39c-0.83,0 -1.41,0.55 -1.41,1.435c0,0.885 0.59,1.435 1.41,1.435c0.695,0 1.19,-0.42 1.325,-0.965Z" style="fill:#2d3748;fill-rule:nonzero;"/><rect x="34.15" y="2.375" width="0.855" height="3.7" style="fill:#2d3748;fill-rule:nonzero;"/><path d="M37.55,6.075l0.85,0l0,-1.63c0,-0.75 -0.43,-1.19 -1.075,-1.19c-0.375,0 -0.675,0.165 -0.845,0.4l0,-0.37l-0.855,0l0,2.79l0.855,0l0,-1.515c0,-0.38 0.21,-0.59 0.535,-0.59c0.325,0 0.535,0.21 0.535,0.59l0,1.515Z" style="fill:#2d3748;fill-rule:nonzero;"/></g></svg>