<svg xmlns="http://www.w3.org/2000/svg" xmlns:xlink="http://www.w3.org/1999/xlink" width="160" height="35" viewBox="0 0 160 35">
  <defs>
    <clipPath id="clip-Artboard_5">
      <rect width="160" height="35"/>
    </clipPath>
  </defs>
  <g id="Artboard_5" data-name="Artboard – 5" clip-path="url(#clip-Artboard_5)">
    <path id="Path_21" data-name="Path 21" d="M6.825-14.742H1.3V0H6.825c4.7,0,7.728-3,7.728-7.371C14.553-11.76,11.529-14.742,6.825-14.742ZM4.893-3.108v-8.568h1.7a3.943,3.943,0,0,1,4.3,4.3c0,2.709-1.6,4.263-4.3,4.263ZM16.569,0H20.16V-5.964h4.494V-8.757H20.16v-3.108h6.006v-2.877h-9.6Zm17.85-3.612-3.654-11.13H26.943L32.172,0h4.494L41.9-14.742h-3.8Zm21.21-6.342c0,1.155-.63,1.848-1.974,1.848H51.429V-11.76h2.226C55-11.76,55.629-11.046,55.629-9.954Zm-7.791-4.788V0h3.591V-5.565h.861L55.356,0h4.053l-3.4-5.838A4.291,4.291,0,0,0,59.283-10.1c0-2.562-1.806-4.641-5.418-4.641ZM66.7-9.009A2.026,2.026,0,0,1,68.9-6.993H64.407A2.221,2.221,0,0,1,66.7-9.009ZM72.3-3.885H68.481a1.909,1.909,0,0,1-1.869,1.134A2.172,2.172,0,0,1,64.386-5h8.127a9.075,9.075,0,0,0,.063-1.05,5.522,5.522,0,0,0-5.838-5.838,5.628,5.628,0,0,0-5.922,6.027A5.649,5.649,0,0,0,66.738.168,5.476,5.476,0,0,0,72.3-3.885Zm1.449-2c0,3.7,2.289,6.048,5.166,6.048A4.144,4.144,0,0,0,82.53-1.68V-.021c0,1.974-1.071,2.688-2.436,2.688a2.21,2.21,0,0,1-2.352-1.449H74.193c.315,2.793,2.583,4.557,6.069,4.557,4.053,0,5.859-2.667,5.859-5.8v-11.7H82.53v1.659a4.059,4.059,0,0,0-3.612-1.827C76.041-11.886,73.752-9.576,73.752-5.88Zm8.778.021a2.616,2.616,0,0,1-2.562,2.9A2.647,2.647,0,0,1,77.406-5.88a2.609,2.609,0,0,1,2.562-2.877A2.616,2.616,0,0,1,82.53-5.859Zm11.361-3.15a2.026,2.026,0,0,1,2.2,2.016H91.6A2.221,2.221,0,0,1,93.891-9.009ZM99.5-3.885H95.676a1.909,1.909,0,0,1-1.869,1.134A2.172,2.172,0,0,1,91.581-5h8.127a9.073,9.073,0,0,0,.063-1.05,5.522,5.522,0,0,0-5.838-5.838,5.628,5.628,0,0,0-5.922,6.027A5.649,5.649,0,0,0,93.933.168,5.476,5.476,0,0,0,99.5-3.885ZM101.661,0h3.591V-15.54h-3.591Zm14.28,0h3.57V-6.846c0-3.15-1.806-5-4.515-5a4.3,4.3,0,0,0-3.549,1.68v-1.554h-3.591V0h3.591V-6.363a2.177,2.177,0,0,1,2.247-2.478,2.177,2.177,0,0,1,2.247,2.478Z" transform="translate(40.698 28)" fill="#2d3748"/>
    <g id="Group_10" data-name="Group 10" transform="translate(1534 272)">
      <path id="Subtraction_4" data-name="Subtraction 4" d="M22.579,28.661H11L0,0H22.579a4.005,4.005,0,0,1,4,4V24.662A4,4,0,0,1,22.579,28.661Z" transform="translate(-1525.579 -265.701)" fill="#cbd5e0"/>
      <path id="Icon_awesome-times" data-name="Icon awesome-times" d="M7.418,11l3.058-3.058a.961.961,0,0,0,0-1.359l-.68-.68a.961.961,0,0,0-1.359,0L5.379,8.965,2.32,5.906a.961.961,0,0,0-1.359,0l-.68.68a.961.961,0,0,0,0,1.359L3.34,11,.281,14.062a.961.961,0,0,0,0,1.359l.68.68a.961.961,0,0,0,1.359,0l3.058-3.058L8.437,16.1a.961.961,0,0,0,1.359,0l.68-.68a.961.961,0,0,0,0-1.359Z" transform="translate(-1512.517 -262.281)" fill="#4a5568"/>
      <path id="Subtraction_3" data-name="Subtraction 3" d="M25.971,28.661H4a4,4,0,0,1-4-4V4A4,4,0,0,1,4,0H14.969l11,28.66Z" transform="translate(-1534 -272)" fill="#4299e1"/>
      <path id="Path_20" data-name="Path 20" d="M-1490.062-213l-6.562,6.355-2.436-6.355Z" transform="translate(-17.952 -30.355)" fill="#2c5282"/>
      <path id="Icon_awesome-check" data-name="Icon awesome-check" d="M4.247,13.719.183,9.655a.625.625,0,0,1,0-.884l.884-.884a.625.625,0,0,1,.884,0l2.738,2.738L10.553,4.76a.625.625,0,0,1,.884,0l.884.884a.625.625,0,0,1,0,.884l-7.19,7.19A.625.625,0,0,1,4.247,13.719Z" transform="translate(-1529.628 -264.436)" fill="#ebf8ff"/>
    </g>
  </g>
</svg>
